<svg width="1921" height="528" viewBox="0 0 1921 528" fill="none" xmlns="http://www.w3.org/2000/svg">
<path d="M196.68 470.72C186.444 478.167 175.748 481.89 164.591 481.89C147.843 481.89 134.817 476.535 125.516 465.839C116.674 455.143 112.253 440.026 112.253 420.488V179.787L231.676 163.379L227.493 129.199L112.268 158.172V64.6803H92.7298V70.5254C92.6259 122.196 55.1671 166.212 4.16369 174.579L0.974121 175.099V194.637L53.6539 187.442V426.095C53.6539 454.935 61.561 477.484 77.3754 493.773C93.6496 510.048 115.977 518.192 144.356 518.192C166.683 518.192 186.221 511.68 202.955 498.654C220.164 485.169 232.729 467.263 240.637 444.936L222.493 437.266C215.521 451.686 206.916 462.842 196.68 470.749V470.72Z" fill="black"/>
<path d="M1134.15 447V265.61C1134.15 229.338 1123.45 200.721 1102.06 179.788C1081.13 158.396 1052.52 147.7 1016.24 147.7C990.66 147.7 966.701 154.45 944.375 167.935C922.507 181.42 903.682 200.261 887.867 224.442C880.42 200.261 866.935 181.42 847.397 167.935C827.859 154.45 803.915 147.7 775.535 147.7C751.814 147.7 729.249 153.975 707.857 166.54C686.925 178.631 668.781 195.617 653.442 217.47V158.173H635.298L543.899 188.867V207.011C562.962 203.762 576.224 204.919 583.672 210.497C591.119 216.075 594.828 227.706 594.828 245.374V446.302C594.828 459.788 591.104 469.786 583.672 476.299C581.372 478.302 578.524 480.112 575.112 481.729C561.463 488.182 545.471 488.182 531.823 481.729C528.411 480.112 525.562 478.302 523.263 476.299C515.816 469.786 512.107 459.788 512.107 446.302V288.634C512.107 258.875 505.831 233.521 493.266 212.589C480.715 191.196 463.032 175.145 440.245 164.449C417.458 153.292 390.948 147.7 360.714 147.7C330.48 147.7 301.64 154.672 276.984 168.632C252.802 182.592 234.199 200.721 221.174 223.048L249.776 283.753L267.222 278.872C265.368 257.94 267.92 239.099 274.892 222.365C281.865 205.631 292.338 192.591 306.283 183.289C320.703 173.988 337.452 169.329 356.515 169.329C375.579 169.329 391.63 173.988 406.05 183.289C420.93 192.131 432.56 204.919 440.942 221.668C449.309 237.942 453.493 257.02 453.493 278.872V286.216L423.496 292.12C382.566 300.487 349.305 310.486 323.73 322.117C298.154 333.748 279.313 347.93 267.222 364.679C255.132 380.953 249.079 400.729 249.079 423.975C249.079 441.644 253.5 457.696 262.341 472.116C271.183 486.535 283.037 497.929 297.916 506.296C312.796 514.203 329.782 518.149 348.845 518.149C370.713 518.149 390.71 512.096 408.839 500.006C427.442 487.44 442.322 470.232 453.493 448.379V507.676H703.659V489.532C684.596 487.203 671.333 482.782 663.886 476.284C656.913 469.772 653.427 459.773 653.427 446.288V243.268C665.992 225.124 681.094 210.705 698.778 200.008C716.921 188.838 735.287 183.26 753.891 183.26C778.072 183.26 797.61 191.404 812.49 207.678C827.369 223.493 834.817 244.188 834.817 269.778V446.288C834.817 459.773 831.093 469.772 823.661 476.284C816.688 482.797 803.9 487.218 785.282 489.532V507.676H944.36V489.532C925.296 487.203 912.034 482.782 904.587 476.284C897.139 469.772 893.431 460.01 893.431 446.985V265.595C893.431 256.293 893.193 249.543 892.733 245.36C905.299 226.756 920.638 211.877 938.782 200.706C956.925 189.075 975.528 183.26 994.592 183.26C1018.77 183.26 1038.31 191.404 1053.19 207.678C1068.07 223.493 1075.52 244.188 1075.52 269.778V446.288C1075.52 459.773 1071.79 469.772 1064.36 476.284C1057.39 482.797 1044.59 487.218 1025.98 489.532V507.676H1185.06V489.532C1166 487.203 1152.73 482.782 1145.29 476.284C1137.84 469.772 1134.12 460.01 1134.12 446.985L1134.15 447ZM420.025 463.749C406.999 473.51 391.645 478.406 373.976 478.406C355.373 478.406 339.796 472.59 327.231 460.96C315.14 448.869 309.087 433.752 309.087 415.608C309.087 390.492 318.151 369.797 336.295 353.523C354.438 336.774 383.975 323.289 424.906 313.053L453.508 305.902V422.596C444.206 440.264 433.035 453.987 420.025 463.763V463.749Z" fill="black"/>
<path d="M1465.99 171.747H1466.03C1442.3 155.458 1414.84 147.313 1383.66 147.313C1352.47 147.313 1328.04 154.998 1306.16 170.352C1284.73 185.247 1269.16 205.245 1259.37 230.376V0H1241.22L1150.46 30.7088V48.8523C1169.08 45.6034 1182.1 46.7457 1189.55 52.3385C1197 57.9166 1200.72 69.5474 1200.72 87.2309V507.497H1218.87L1248.18 470.498C1260.75 483.523 1277.26 494.694 1297.74 504.011C1318.69 513.312 1340.56 517.971 1363.38 517.971C1397.36 517.971 1428.07 510.049 1455.52 494.234C1482.98 477.96 1504.37 455.604 1519.74 427.224C1535.11 398.844 1542.78 366.503 1542.78 330.172C1542.78 296.185 1536.03 265.238 1522.53 237.333C1509.03 209.414 1490.17 187.532 1465.98 171.717L1465.99 171.747ZM1463.94 420.281H1463.93C1453.69 444.017 1439.26 462.621 1420.65 476.135C1402.51 489.635 1381.79 496.385 1358.52 496.385C1335.26 496.385 1313.84 489.398 1297.09 475.438C1280.34 461.004 1267.78 443.32 1259.4 422.373V261.114C1266.84 239.232 1279.17 221.089 1296.39 206.669C1314.08 192.234 1334.79 185.039 1358.52 185.039C1382.26 185.039 1403.91 191.789 1422.05 205.289C1440.67 218.789 1454.86 237.17 1464.63 260.432C1474.86 283.693 1479.99 309.996 1479.99 339.31C1479.99 368.625 1474.64 396.085 1463.94 420.281Z" fill="black"/>
<path d="M1897.53 236.666C1882.62 208.287 1861.69 186.405 1834.69 171.035C1807.69 155.221 1776.52 147.299 1741.15 147.299C1705.79 147.299 1674.37 155.221 1646.91 171.035C1619.91 186.405 1598.74 208.272 1583.38 236.666C1568.47 264.601 1561.04 296.467 1561.04 332.309C1561.04 368.151 1568.49 400.254 1583.38 428.648C1598.74 456.583 1619.91 478.45 1646.91 494.279C1674.37 510.094 1705.79 518.016 1741.15 518.016C1776.52 518.016 1807.69 510.094 1834.69 494.279C1861.69 478.465 1882.62 456.583 1897.53 428.648C1912.89 400.269 1920.56 368.151 1920.56 332.309C1920.56 296.467 1912.87 264.601 1897.53 236.666ZM1842.38 417.478C1832.61 442.149 1818.88 461.464 1801.19 475.424C1783.52 489.384 1763.5 496.371 1741.17 496.371C1718.84 496.371 1698.12 489.384 1680.43 475.424C1662.77 461.449 1649.03 442.149 1639.27 417.478C1629.49 392.347 1624.59 363.952 1624.59 332.324C1624.59 300.695 1629.48 272.968 1639.27 247.837C1649.03 222.706 1662.77 203.391 1680.43 189.891C1698.12 175.916 1718.37 168.944 1741.17 168.944C1763.97 168.944 1783.52 175.931 1801.19 189.891C1818.88 203.391 1832.61 222.706 1842.38 247.837C1852.15 272.508 1857.05 300.665 1857.05 332.324C1857.05 363.982 1852.17 392.347 1842.38 417.478Z" fill="black"/>
</svg>
