<svg width="1081" height="1080" viewBox="0 0 1081 1080" fill="none" xmlns="http://www.w3.org/2000/svg">
<path d="M614.983 229.572C619.843 232.349 619.891 230.213 624.472 230.069C627.353 229.978 628.36 232.841 628.818 228.356L640.207 233.53L642.016 231.83C645.992 233.482 653.458 233.36 656.645 235.422C659.831 237.484 656.54 236.638 661.879 237.981C667.219 239.323 664.011 238.347 668.126 237.92C674.093 237.296 679.572 245.351 683.32 247.064C685.552 248.084 688.185 247.173 690.539 247.688C696.41 248.973 702.948 257.538 707.207 260.629C708.968 261.906 712.368 261.749 714.181 263.288C715.606 264.5 715.292 265.973 715.776 266.461C716.491 267.185 718.657 266.81 719.716 267.773C720.654 268.627 722.336 273.962 723.548 275.741C724.446 277.057 726.996 278.278 727.741 280.274L730.827 279.062C734.985 281.438 733.111 285.858 734.336 289.323C734.937 291.027 741.027 302.914 742.269 304.962C742.748 305.756 744.226 305.891 744.627 307.007C745.202 308.602 744.27 313.728 744.893 316.169C745.935 320.249 748.201 323.143 750.171 326.22C753.035 330.692 747.343 334.153 747.992 338.525L753.733 341.803C754.644 343.961 752.094 348.664 752.172 349.039C752.259 349.444 756.561 352.085 757.25 355.372C757.669 357.381 756.98 358.724 756.989 360.454C756.993 361.518 759.072 361.971 756.531 364.321L759.164 364.334L759.129 369.525C750.856 370.584 759.97 376.713 759.22 381.368C759.011 382.658 756.675 383.277 757.115 385.866C753.92 386.581 757.363 388.311 757.503 390.935C757.59 392.6 755.568 392.008 755.254 393.825C754.748 396.763 755.494 404.565 756.361 407.556C756.731 408.837 758.619 408.745 758.279 411.771C754.822 412.568 753.297 415.175 754.848 418.588C755.598 420.24 757.302 418.161 754.779 423.618L752.176 422.746C753.118 426.277 752.176 431.132 752.56 434.545C752.665 435.474 754.199 436.149 753.911 436.672C753.868 436.751 752.952 436.481 752.194 437.335C747.443 442.709 750.363 442.796 749.226 447.212C748.72 449.169 746.584 449.099 746.174 450.329C745.46 452.473 747.146 454.966 747.02 457.181C746.728 462.346 735.705 463.98 738.233 471.56C740.861 469.516 742.09 472.258 743.842 472.358C745.268 472.441 746.894 470.819 748.694 471.948C751.558 473.74 748.942 475.745 748.707 477.275C747.879 482.632 752.582 483.647 755.655 486.842L761.304 485.046C765.1 487.352 768.779 487.152 770.898 491.615C773.696 489.078 778.199 486.594 782.182 487.256C783.464 487.47 784.222 488.795 785.582 488.786C787.949 488.773 790.626 485.003 793.533 484.597C798.24 483.944 804.112 484.776 806.653 488.995C809.464 486.973 815.074 482.148 818.204 481.368C820.544 480.779 824.816 481.734 826.097 480.971C826.725 480.596 827.039 477.963 829.737 477.157C832.91 476.207 834.096 478.129 836.293 478.164C841.554 478.247 844.744 468.548 850.328 470.527C851.727 471.024 851.575 472.515 852.011 472.484C852.529 472.445 861.212 470.518 862.032 470.274C867.528 468.618 872.929 461.805 879.022 466.099L888.603 458.414C891.135 458.148 892.077 460.838 892.948 460.894C895.154 461.034 900.467 459.037 904.996 460.406C906.191 460.768 906.836 462.424 907.96 462.712C909.085 463 910.358 462.019 911.739 462.354C917.615 463.775 925.949 470.017 930.025 474.616C931.363 476.124 931.171 478.748 933.481 478.565L933.407 480.23L931.716 481.538L934.876 488.189L929.95 492.138C929.676 493.808 931.411 495.294 931.594 496.61C931.89 498.716 929.728 506.74 932.605 506.461V508.174L926.943 510.755L927.405 520.388C925.443 519.477 924.624 521.957 924.358 521.974C923.521 522.031 921.939 520.545 920.771 522.079C919.315 523.103 920.784 524.991 919.62 526.058C918.343 527.231 915.946 526.987 915.322 527.484C915.218 527.567 915.763 528.565 915.47 529.101C913.221 533.22 913.762 536.01 907.346 536.101L908.091 537.701C904.151 538.381 903 543.616 900.964 545.403C897.242 548.672 887.914 551.902 886.075 553.628C884.737 554.883 884.845 556.574 884.126 557.097C881.193 559.238 875.016 557.834 874.445 558.096C874.275 558.174 874.232 559.046 873.853 559.273C870.893 561.042 870.27 561.382 871.486 565.623C869.162 567.803 867.166 566.299 865.161 566.617C855.75 568.125 845.111 569.198 836.428 573.705C835.386 574.245 834.318 576.006 833.568 576.119C832.453 576.289 831.568 574.498 830.339 574.581C829.018 574.668 827.597 576.856 825.775 577.078C823.774 577.322 821.564 575.81 819.311 577.083C819.058 582.457 825.064 584.222 829.17 586.859C833.324 589.523 831.694 589.326 833.451 590.822C834.453 591.676 837.879 591.371 839.331 592.356C840.926 593.437 840.721 596.292 841.916 597.63C842.134 597.87 846.222 601.209 846.71 601.579C846.893 601.714 849.931 602.904 850.502 603.148C852.185 603.867 855.24 603.737 856.783 605.419C858.457 607.246 857.803 610.946 858.989 612.864C859.473 613.649 861.003 612.881 862.04 614.028C865.274 617.589 865.423 620.923 867.284 624.38C868.299 626.267 871.939 627.361 872.915 628.512C874.995 630.975 876.346 637.818 880.234 639.113L879.449 641.58C884.492 640.678 883.276 650.023 884.004 652.272C884.693 654.39 887.491 657.071 887.766 660.685C887.897 662.45 885.983 663.91 886.454 665.479C886.837 666.765 888.851 666.521 889.623 667.144C892.517 669.485 890.015 676.612 892.97 679.955C894.478 681.659 896.597 679.454 896.008 685.164H894.038L893.402 686.911C896.649 686.205 896.183 688.781 897.73 690.856C893.851 692.234 896.13 693.825 895.59 694.792C895.049 695.76 892.321 696.283 891.828 697.8L893.406 702.616L896.008 701.727L897.748 707.363L895.28 708.819L895.642 714.838L892.517 715.697L893.467 718.639C890.107 720.008 891.052 723.09 892.504 725.805L895.141 725.278L895.119 730.486L892.643 730.578C893.554 733.294 890.93 734.196 890.935 734.431C891.048 738.202 890.743 735.364 889.771 737.787C888.899 739.958 888.145 742.626 890.782 743.105C889.427 744.234 889.557 747.952 888.829 748.645C888.442 749.011 887.151 748.645 886.663 748.981C885.395 749.866 886.506 755.066 886.192 756.862C885.822 758.989 884.58 762.554 883.969 765.056C882.832 769.738 880.609 776.886 879.471 781.672C878.861 784.231 882.344 788.367 876.847 788.045C876.477 789.509 878.312 788.411 878.551 789.439C879.654 794.116 874.467 795.524 877.366 799.369L879.445 798.493L880.068 802.494L873.299 809.446C874.982 812.458 875.718 814.995 871.612 815.95L871.59 817.235C871.699 817.928 872.872 817.471 873.29 818.325C875.422 822.653 872.963 821.66 872.536 822.693C869.485 830.037 874.153 830.351 873.399 833.651C873.251 834.305 871.599 834.549 870.937 835.712C869.524 838.197 869.677 842.059 866.373 841.218C865.937 843.68 869.128 842.961 869.019 845.908C869.006 846.226 865.697 848.88 864.721 848.248L868.121 860.388L865.566 860.436L865.501 863.888H860.266L862.877 866.935L861.19 867.732L862.005 870.844L856.875 872.771L857.276 875.26C852.259 874.907 850.354 883.977 849.853 884.357C848.942 885.045 847.216 885.006 846.061 885.682C845.542 885.983 845.485 887.064 844.758 887.395C841.131 889.042 833.455 887.883 832.078 888.38C830.836 888.829 830.666 890.577 829.75 891.196C827.671 892.59 812.555 892.83 810.541 891.37C809.499 890.616 809.434 886.423 807.716 885.054C805.89 883.603 803.092 884.483 801.339 883.136C800.023 882.125 798.349 875.752 796.044 874.292L791.401 874.336C792.705 879.253 788.699 880.687 787.875 884.797C785.744 882.805 773.199 883.633 772.21 884.806C771.939 885.124 774.014 889.117 770.449 890.498C769.189 890.986 768.016 889.984 766.774 890.232C765.214 890.546 763.775 892.455 761.256 892.586C758.209 892.743 751.004 890.965 749.099 888.297L746.68 889.949C744.81 889.178 742.879 888.524 741.048 887.674C733.028 883.951 726.442 877.583 720.784 870.417C720.366 869.885 718.566 867.972 718.182 868.242C716.238 872.013 714.351 873.621 716.33 878.224C711.936 879.911 715.685 881.907 713.819 883.502C711.544 883.014 709.621 885.303 708.013 885.468C706.405 885.634 704.883 883.973 703.327 884.418C701.065 885.058 698.694 889.326 694.627 888.301L695.49 891.762C689.654 895.69 678.774 889.561 676.669 897.054C673.683 896.605 671.007 898.662 668.492 896.583C666.774 895.162 666.957 893.17 666.552 892.839C665.964 892.359 664.102 892.804 662.747 891.858C661.823 891.209 660.406 888.288 658.933 886.928C655.686 883.925 652.787 884.714 650.159 883.515C647.731 882.408 648.585 877.544 644.937 878.703L647.552 873.486C645.434 872.653 642.06 872.431 641.249 870.243L639.719 870.866L638.795 860.078L640.613 858.265C640.207 855.488 635.827 852.886 636.224 852.572L638.808 851.156L638.076 848.292C641.397 847.965 640.652 844.282 639.658 841.871C639.253 840.895 637.217 841.636 637.98 839.5L644.566 835.124C644.645 834.182 644.906 828.625 645.094 828.342C645.53 827.675 648.694 826.99 649.213 824.916L647.556 820.308L649.997 820.13C650.15 817.841 650.189 817.462 652.621 817.58C654.103 814.786 652.652 810.209 652.992 808.566C653.053 808.265 656.226 805.083 656.274 804.839C657.403 799.151 655.38 795.546 658.846 788.663C659.447 787.469 662.355 788.642 658.894 783.712L661.5 781.528C654.042 776.978 661.862 771.163 656.278 765.815L658.889 764.075C659.696 761.669 657.403 762.105 657.202 761.334C656.706 759.39 658.711 756.517 658.562 754.944C658.388 753.135 656.967 751.483 656.684 749.717C656.257 747.076 658.057 744.204 655.42 742.277C661.112 740.398 655.219 733.137 653.28 729.554C652.726 728.529 653.031 727.03 652.591 726.359C651.806 725.156 645.891 724.445 644.88 722.95C644.017 721.677 642.13 716.756 644.78 717.31L644.941 716.142C643.93 713.335 637.387 712.676 634.75 711.909L632.288 707.842C629.489 709.255 625.797 710.24 622.724 709.355C621.12 708.893 618.797 701.592 615.942 700.585C613.893 699.861 612.921 701.915 610.733 701.596C607.595 701.139 605.346 699.038 603.55 696.649C596.619 702.642 594.505 693.92 593.886 693.829C593.372 693.75 584.55 694.635 583.543 694.818C577.789 695.869 578.495 699.67 575.627 702.581C574.424 703.802 571.761 704.312 571.273 705.175C570.889 705.85 572.01 707.415 571.343 708.705C570.998 709.372 566.374 712.772 565.293 714.049C563.166 716.56 560.511 720.901 558.131 723.451C554.539 727.3 550.573 730.652 545.935 733.115C544.763 735.264 548.18 737.692 548.189 737.979C548.333 743.184 545.77 742.107 544.902 742.909C544.392 743.38 544.989 744.805 544.17 745.42C542.88 746.383 540.705 745.18 541.127 748.68L533.364 750.567C535.775 755.223 530.444 759.499 525.527 758.405L528.125 764.075L525.597 765.492L526.395 768.853C520.624 767.977 522.851 769.89 521.805 771.18C519.294 774.279 515.681 773.918 517.633 779.288L515.206 779.466L515.057 781.933L510.707 781.062C509.43 788.746 498.014 789.248 494.048 795.437C492.875 797.263 494.166 798.257 494.126 800.236L491.694 800.424C491.899 803.863 488.586 802.965 485.975 804.73C482.549 807.049 482.323 808.117 477.964 810.636C474.738 812.502 472.476 817.17 468.858 815.941V819.014C463.445 819.419 459.513 825.308 453.158 823.791C454.387 826.533 452.491 827.344 450.512 828.647L451.423 831.619C448.128 831.698 445.534 835.046 442.226 835.015C441.115 835.006 439.096 833.237 437.933 833.555C437.693 833.62 434.62 836.619 434.158 836.767C429.446 838.267 419.822 836.436 415.886 840.555C415.097 841.379 415.202 843.336 414.665 843.693C414.247 843.972 405.834 846.069 404.923 846.191C403.154 846.426 402.295 845.52 400.918 844.757C401.432 846.256 395.604 847.717 394.114 847.987C388.207 849.059 382.314 849.233 376.251 851.047C373.078 851.997 368.737 855.776 365.786 854.991C364.892 854.752 364.156 853.392 363.083 853.549C361.183 853.832 358.249 857.472 357.944 857.615C357.6 857.781 353.189 857.188 350.486 858.396C346.289 860.27 342.318 860.165 339.489 861.53C338.194 862.157 338.321 863.456 336.991 864.158C332.205 866.673 325.131 861.011 325 867.37C322.79 866.303 320.737 867.488 318.693 867.227C317.338 867.052 316.121 865.4 314.143 865.592C311.924 865.81 310.01 870.195 305.351 870.042C303.446 869.981 302.596 868.573 301.633 868.421C300.282 868.207 299.174 868.804 298.394 868.687C297.217 868.512 296.446 867.649 295.099 867.628C291.076 867.558 292.327 869.916 291.054 871.232C290.858 871.433 286.181 873.08 285.758 873.141C283.461 873.473 282.541 871.341 280.981 869.999L276.439 875.242L266.296 874.297C263.868 882.456 256.327 875.587 251.341 880.168L244.027 875.966L244.358 874.336C242.022 873.904 241.211 876.968 240.082 877.483C238.007 878.424 234.206 877.108 232.297 877.282C229.983 877.496 226.147 879.274 225.175 879.266C223.593 879.257 221.156 876.21 219.944 876.302C218.07 876.441 211.876 885.133 207.823 877.226L197.292 878.573C191.377 871.965 184.185 874.981 176.457 869.859C175.519 869.24 175.219 867.536 174.434 867.349C172.403 866.86 169.648 868.199 168.079 867.92C166.218 867.593 164.461 865.191 161.985 865.601L162.809 858.705C157.243 858.361 154.802 851.204 148.905 850.798L150.849 843.972L153.263 843.829C151.943 839.16 150.456 838.232 153.826 833.816C153.991 831.685 151.489 831.698 151.502 831.188C151.546 829.27 157.182 825.447 153.263 822.048L160.233 822.039C159.305 815.047 162.861 816.433 167.111 813.648C169.164 812.301 170.376 810.366 171.614 809.477C172.555 808.801 174.164 809.102 175.044 808.509C175.463 808.23 178.422 802.429 178.361 801.701C178.026 797.651 174.979 799.334 173.493 798.767C169.923 797.407 167.922 795.563 165.878 792.39L162.861 794.142C162.796 790.324 158.407 789.805 157.919 785.338L153.268 785.434C151.062 781.293 154.331 779.004 154.597 776.306C154.976 772.484 151.873 767.933 151.838 766.665C151.755 763.666 155.517 757.066 155.504 755.345C155.486 753.401 153.569 751.975 153.669 750.48C153.952 746.278 156.977 747.773 158.912 746.178C159.449 745.734 166.444 735.665 166.802 734.863C167.303 733.738 166.981 731.859 167.255 731.393C167.299 731.319 168.323 731.964 168.929 731.655C172.368 729.911 174.007 728.307 178.553 728.73L178.54 724.397C176.958 723.783 173.305 725.308 172.403 724.811C171.156 724.127 166.906 717.916 164.64 717.005C163.703 716.63 162.591 717.541 161.719 717.419C161.122 717.332 161.14 716.251 160.743 716.006C160.011 715.558 158.83 715.771 158.642 715.575C157.932 714.834 159.326 711.146 157.644 709.948L154.144 710.453C154.179 709.595 154.083 708.697 153.634 707.943C151.067 703.61 150.151 699.927 149.192 694.919C148.961 693.711 147.553 692.513 147.497 691.684C147.383 689.976 150.644 686.162 150.631 684.723C150.622 683.655 149.231 682.553 148.939 681.18C147.789 675.757 150.818 677.893 152.81 675.561C154.27 673.852 153.996 671.15 155.003 669.215C156.171 666.961 160.848 664.83 162.347 663.304C163.655 661.97 167.787 655.118 168.271 654.852C169.369 654.255 171.257 655.062 172.486 654.251C172.935 653.955 173.684 650.956 175.371 649.779C175.707 649.543 180.044 647.329 180.305 647.246C181.134 646.98 181.779 648.223 183.557 648.018C188.408 647.456 193.482 643.214 198.521 642.857C199.619 642.779 204.471 644.849 205.974 644.696C207.191 644.574 212.944 641.859 212.543 639.841L213.89 641.632L222.969 638.969L225.14 643.114C228.021 642.269 229.922 641.811 231.277 638.965L232.223 640.691L238.661 638.96L240.653 641.436C245.138 641.297 247.505 636.266 250.356 639.867L258.306 636.349L259.178 638.145C260.346 638.18 261.253 636.99 262.234 636.79C267.15 635.783 270.646 633.054 275.742 631.995C277.101 636.702 283.766 629.637 287.083 629.693C287.754 629.706 289.062 631.672 290.069 631.071C290.147 631.023 289.99 629.863 290.736 629.384C293.029 627.902 295.901 626.686 298.216 625.012C299.157 624.332 298.32 622.567 300.556 623.303L302.77 625.871C304.318 622.902 306.672 621.996 309.801 621.141C310.359 620.989 311.58 621.76 311.832 621.494C312.129 621.181 311.723 619.394 312.774 618.483C314.953 616.591 324.612 614.49 327.358 612.555C331.56 609.591 332.737 603.732 333.905 602.542C334.821 601.61 340.313 600.489 341.538 599.282C342.763 598.075 342.3 596.27 343.251 594.893C344.201 593.515 348.067 592.229 348.372 591.763C348.499 591.567 347.335 589.113 348.734 587.727C352.574 588.058 355.804 584.279 358.145 583.59C359.095 583.311 361.174 586.105 361.614 583.595C361.889 582.034 360.054 580.317 361.148 577.972C363.122 573.748 367.207 571.904 369.43 569.642C370.502 568.552 370.38 566.7 371.574 565.684C372.511 564.891 374.468 564.952 375.131 564.011C376.399 562.193 375.863 555.69 376.569 554.548C376.844 554.107 379.821 553.732 380.854 552.294C382.096 550.559 381.477 548.14 382.493 546.305C383.177 545.072 387.296 542.683 388.029 541.101C388.761 539.518 387.575 536.088 389.554 533.935L387.732 532.998C388.295 525.936 391.904 524.341 397.823 522.201C396.642 517.624 397.479 515.048 399.972 511.265C398.141 511.09 397.84 513.514 396.228 514.573C392.287 517.153 388.438 517.079 385.143 518.369C383.212 519.128 376.495 525.71 375.349 526.207C374.29 526.669 370.968 525.684 369.717 525.888C364.975 526.677 351.153 530.509 347.679 533.089C346.812 533.73 344.236 537.492 343.957 537.583C342.396 538.089 340.875 537.566 339.52 537.98C337.981 538.455 337.702 541.118 336.333 541.798C334.084 542.918 332.593 541.423 331.451 541.58C330.776 541.676 330.039 545.625 325.358 544.108C324.155 543.72 324.107 542.604 323.405 542.282C319.391 540.434 319.844 543.956 317.368 544.684C316.082 545.063 314.544 544.213 312.957 544.535C311.231 544.888 304.632 547.159 302.435 547.896C296.564 549.871 295.766 553.82 289.284 548.314C288.809 550.86 283.736 554.351 281.273 553.981C279.712 553.746 279.765 552.211 279.05 551.78C278.104 551.209 276.853 551.326 275.951 550.877C275.201 550.503 275.319 549.095 274.883 549.169C271.147 549.836 272.817 552.547 272.503 553.31C272.424 553.497 269.696 555.986 269.504 556.051C268.005 556.548 260.063 553.628 255.669 554.569C253.18 555.101 250.975 557.538 248.006 557.045C247.684 556.993 245.74 553.907 242.872 553.24C240.653 552.721 239.572 554.155 238.247 554.086C236.765 554.007 235.658 552.124 234.76 552.08C233.98 552.046 232.785 553.388 231.325 553.436C228.165 553.536 222.673 552.272 219.033 552.224C217.556 552.207 216.253 553.61 214.5 552.974C212.988 552.42 212.517 549.169 210.041 549.047L210.769 547.469L205.569 547.447L204.253 543.973C198.848 549.653 197.449 543.925 195.239 543.546C193.97 543.328 188.417 544.139 188.121 543.943C190.126 537.492 181.517 539.292 179.604 537.648C178.675 536.851 178.911 533.787 177.695 533.011C176.317 532.126 173.985 533.094 172.425 532.183C172.159 532.03 168.898 527.92 168.602 527.41C168.227 526.769 169.208 525.47 168.109 524.319C166.889 523.042 164.439 523.792 163.467 523.116C162.19 522.227 161.933 519.333 159.348 519.529L162.831 515.201L161.223 515.048C162.5 512.346 158.328 509.447 155.866 508.196C160.024 504.443 157.5 504.251 157.156 501.157C156.336 493.851 165.525 490.447 161.484 483.809C162.975 481.677 165.577 482.357 167.743 481.254C169.679 480.269 169.857 477.955 172.438 478.574L171.614 476.032C172.316 475.819 173.275 475.653 173.767 475.121C180.82 467.563 194.001 462.956 204.915 464.843C206.38 465.096 207.613 466.456 209.523 466.469C211.144 466.478 209.993 464.063 214.025 464.913C223.662 466.94 228.954 468.147 238.975 466.395C239.703 463.453 245.945 464.883 244.824 468.091C247.444 467.358 250.63 469.363 250.905 465.506L251.86 467.075C256.223 466.713 255.813 469.743 261.58 468.056C262.343 467.833 262.229 466.395 262.73 466.369C265.049 466.26 268.096 467.258 267.896 469.869L277.006 468.108L277.045 465.493C279.359 466.168 281.914 465.597 282.711 468.121L284.559 466.36C291.59 468.326 299.052 466.569 305.743 464.128C307.121 463.627 308.258 462.045 309.98 461.395C317.372 458.593 321.762 458.205 328.649 453.55C330.61 452.225 347.601 453.462 354.684 447.613C355.333 447.077 354.758 445.917 354.993 445.678C358.716 441.829 360.263 443.917 363.367 442.404C364.456 441.872 364.674 440.107 365.729 439.318C367.525 437.971 370.432 438.063 372.045 437.134C373.435 436.332 373.431 434.436 374.883 433.826C378.012 432.505 381.878 434.053 384.938 432.614C388.656 430.862 390.212 423.605 397.339 427.153C396.72 421.508 402.74 417.55 407.809 417.555C408.075 416.278 407.944 416.43 407.229 415.737C404.958 413.549 404.309 413.998 406.183 409.835C408.158 409.962 415.018 408.846 416.317 407.769C417.35 406.91 417.468 401.166 421.753 401.859L420.018 398.402L425.227 396.624L425.349 393.28L429.603 392.274L428.723 388.804C431.926 388.468 436.525 387.135 435.718 383.233C429.747 378.277 439.419 378.012 440.012 377.423C440.491 376.944 438.879 370.449 442.723 368.326C443.8 367.733 445.295 368.3 446.245 367.319C447.195 366.339 448.01 362.459 447.914 360.903L450.517 361.775V354.81H454.888L454.875 345.229L460.062 345.181C460.123 344.327 460.211 343.468 460.638 342.697C462.573 339.201 463.898 334.707 466.178 331.006C467.18 329.38 470.005 330.322 467.952 326.037L475.793 323.378C472.886 318.287 476.682 317.899 475.793 313.85C480.649 314.02 482.458 310.114 481.033 305.995C483.574 306.353 484.027 305.899 483.652 303.354L485.361 304.221C485.243 302.395 486.429 300.952 486.834 299.287C487.008 298.577 486.18 297.352 486.254 297.278C486.416 297.116 489.519 297.151 490.657 295.988C492.588 294.004 489.837 289.38 495.805 290.243C496.145 285.134 496.798 281.006 502.831 282.44C501.48 281.059 505.067 272.363 505.455 271.975C505.568 271.862 507.373 272.916 508.489 272.89C513.466 272.777 512.569 269.168 515.04 268.065C517.655 266.897 521.809 268.819 523.296 265.864C523.932 264.6 524.756 258.925 525.623 258.175C526.425 257.482 529.864 258.689 531.621 257.621C532.798 256.906 532.745 254.688 533.556 253.881C534.241 253.201 535.797 253.332 536.577 252.561C539.497 249.666 539.85 244.968 545.094 248.455C545.321 247.143 549.039 243.294 549.645 243.194C550.948 242.976 552.308 243.97 553.036 243.861C553.397 243.808 557.469 239.973 558.362 239.755C560.908 239.131 564.857 240.138 567.629 239.768L569.107 236.25C573.84 237.954 572.676 236.159 574.119 235.444C575.03 234.995 579.703 232.767 580.03 232.741C582.523 232.51 587.335 237.126 585.648 230.152C586.76 229.245 592.574 234.489 596.611 231.05C597.513 230.283 597.718 228.33 598.337 228.343C599.492 228.374 600.621 229.708 601.898 229.869C606.161 230.396 612.459 228.204 614.961 229.633L614.983 229.572ZM650.172 247.513C647.626 250.194 645.137 247.43 641.781 246.676C639.915 246.258 638.154 246.498 636.45 246.062C634.58 245.587 631.612 243.281 629.65 243.259C629.376 243.259 627.611 246.227 625.309 246.293C624.402 246.319 623.112 245.042 621.787 244.911C619.032 244.641 616.243 244.471 613.78 244.262C611.975 244.109 610.267 244.894 608.345 244.026L608.266 246.533C605.285 245.539 604.64 248.429 604.4 248.424C602.948 248.389 599.662 245.43 596.576 245.765C594.954 245.944 591.21 249.823 589.593 249.802C588.817 249.789 587.605 247.94 585.356 248.359C584.816 248.459 584.938 249.784 584.153 250.072C580.514 251.41 576.752 250.333 574.089 250.355C569.189 250.403 568.374 254.335 567.629 254.509C565.946 254.906 563.558 254.047 561.88 254.479C561.222 254.649 558.136 259.19 557.569 259.5C556.248 260.215 554.247 259.199 552.029 260.542C550.194 261.649 550.699 263.471 550.198 264.072C546.702 268.244 543.372 271.221 537.732 268.431C537.719 273.457 534.441 273.596 531.538 275.771C527.253 278.979 522.337 283.399 518.571 287.13C517.625 288.068 514.626 289.079 514.364 289.536C513.541 290.971 514.8 294.497 514.046 295.342C513.61 295.835 507.704 297.718 506.41 299.461C505.721 300.386 505.712 302.155 504.967 303.245C502.988 306.144 498.891 309.025 501.105 312.451L498.498 312.891L498.485 316.387C493.002 313.479 491.903 322.071 492.379 325.967L489.929 326.076C490.491 330.2 487.518 330.1 486.259 331.852C484.825 333.848 482.445 338.904 480.832 340.556C480.1 341.306 477.123 341.036 476.199 342.531C475.493 343.673 477.158 346.258 476.757 348.036C476.574 348.847 474.525 349.091 473.679 350.399C472.132 352.796 472.642 355.991 470.114 359.051C468.863 360.563 466.927 361.06 465.973 362.834L467.106 371.303C463.623 369.599 464.447 372.193 463.41 372.838C462.608 373.339 461.122 372.781 460.407 373.304C458.105 374.969 451.353 382.606 450.926 385.221C450.259 389.318 449.161 389.571 448.939 391.114C448.725 392.579 449.614 394.235 449.444 394.671C449.396 394.793 448.507 394.815 448.294 395.181C447.195 397.055 448.773 398.084 444.44 397.461C447.121 403.271 441.014 406.584 436.616 408.868L437.484 411.4C431.896 411.095 431.508 418.688 428.335 421.046C427.227 421.87 422.141 422.249 419.264 424.145C418.301 424.782 417.943 426.338 416.897 427.009C415.354 428.003 413.157 427.693 411.653 428.8C410.15 429.908 411.793 431.551 410.464 432.715C408.166 434.728 403.093 434.641 401.402 435.727C400.238 436.476 400.661 439.54 399.728 440.791C399.532 441.053 395.038 444.671 394.763 444.849C393.006 445.974 388.351 444.601 387.732 444.958C387.113 445.316 386.66 447.181 384.925 448.219C383.016 449.361 380.427 449.461 378.304 449.932C378.867 453.894 372.668 452.155 369.22 454.086C368.401 454.543 367.799 456.758 366.065 456.884L366.854 459.343C364.086 458.841 360.817 461.064 358.445 461.082C356.597 461.095 355.756 459.565 354.671 459.796C350.735 460.641 344.218 467.515 340.008 469.56C334.594 472.188 330.401 470.41 325.659 471.783C323.436 472.423 319.473 475.784 317.634 476.385C315.904 476.948 313.149 476.534 311.013 477.192C307.19 478.369 301.21 483.394 299.301 478.534L296.646 480.234L297.117 482.889C295.417 482.571 293.669 483.656 292.179 483.713C285.88 483.957 284.882 482.013 280.571 480.648C278.989 480.147 272.385 480.814 270.711 481.337C269.147 481.825 268.066 484.236 266.174 484.297C262.055 484.427 258.598 479.232 254.797 479.742C253.682 479.89 252.078 482.666 250.33 482.762C249.109 482.828 248.298 481.11 247.156 481.293C246.32 481.424 245.648 482.884 243.578 482.893C239.498 482.915 240.143 478.957 239.128 478.53L233.958 481.572C231.077 483.181 228.178 480.701 226.914 480.6C225.859 480.518 224.386 482.187 223.091 482.392C222.01 482.562 217.203 482.998 216.518 482.915C213.563 482.566 213.153 479.175 212.369 478.722C210.085 477.397 205.752 480.579 204.309 476.045C200.352 476.664 195.06 482.527 192.937 476.795C189.877 478.63 187.742 481.555 185.087 483.765C183.98 484.685 181.957 484.811 181.042 485.901C180.127 486.99 181.064 488.263 180.65 489.026C180.266 489.732 175.79 492.94 175.319 493.611C173.99 495.499 173.789 500.695 170.703 502.516C174.173 503.275 171.026 505.236 171.509 507.586C171.658 508.301 173.384 508.449 174.033 509.608C174.853 511.068 176.095 517.812 176.884 518.609C177.093 518.823 178.941 517.768 180.593 518.692C182.607 519.821 182.759 521.996 182.925 522.122C184.638 523.426 184.577 520.797 185.057 520.566C188.012 519.128 191.438 522.615 193.434 524.424L192.493 527.353C197.758 527.558 203.05 538.389 207.657 533.429C216.109 535.992 224.713 535.962 232.703 537.483C235.941 538.097 238.971 540.211 242.793 540.137C245.313 540.085 246.869 538.211 247.871 538.158C249.331 538.084 257.735 541.571 260.895 541.288C263.724 541.035 265.424 536.716 269.896 536.219C273.357 535.835 273.78 539.113 277.895 536.428C278.579 535.983 278.727 534.58 278.919 534.471C279.168 534.336 282.576 535.447 284.498 535.273C286.159 535.12 287.266 533.835 288.456 533.865C289.855 533.904 291.381 535.129 293.029 534.929C297.348 534.401 299.018 529.062 302.84 531.642C303.673 529.502 309.548 529.471 311.933 528.682C313.171 528.273 314.095 527.388 314.984 526.49L315.808 528.229C317.695 526.865 320.127 526.782 322.18 525.875C323.309 525.378 323.222 523.862 323.758 523.848C325.118 523.809 327.576 525.492 328.954 525.287C329.616 525.191 339.214 519.734 340.505 518.871C341.795 518.008 342.379 516.238 343.05 516.011C346.393 514.891 346.35 518.426 347.187 518.531C347.771 518.605 356.262 514.294 357.866 513.588C361.488 512.006 365.319 510.868 368.506 509.399C370.559 508.453 373.662 505.254 375.353 504.844C377.716 504.273 380.562 506.374 383.674 505.402C387.379 504.243 387.645 493.638 392.553 500.328C395.43 494.618 397.051 498.175 399.488 497.608C400.329 497.417 401.249 493.38 405.202 495.093L404.531 493.529C409.731 487.657 408.72 491.171 412.656 491.624C413.672 491.742 414.722 491.092 415.65 490.735L418.235 505.088C418.017 508.44 413 511.06 412.32 514.939C411.767 518.117 412.521 519.206 411.483 523.639C411.152 525.056 411.64 527.109 411.117 528.05C410.712 528.778 405.046 530.709 403.873 534.336C403.564 535.286 404.998 536.258 405.072 537.374C405.455 543.276 401.528 542.918 399.065 546.065C394.872 551.418 395.648 558.409 392.985 563.304C392.444 564.294 390.81 564.285 390.557 565.349C390.404 565.989 391.363 567.345 391.254 567.445C391.097 567.589 389.641 567.166 388.931 567.702C386.49 569.555 380.606 577.85 379.503 580.591C379.102 581.585 379.873 582.806 379.743 583.006C379.385 583.577 376.325 584.083 375.563 585.578C374.512 587.635 376.247 590.717 372.699 592.129C371.827 592.478 370.432 591.794 370.371 591.894C370.101 592.351 370.746 593.873 369.813 594.561C368.471 595.546 364.439 595.154 364.238 595.363C363.89 595.721 364.631 603.253 358.99 602.355L359.701 603.915C357.992 606.173 354.671 605.759 353.934 606.06C353.564 606.212 350.233 610.863 349.427 611.587C348.303 612.594 347.021 612.11 345.896 613.121C343.456 615.314 342.71 619.969 341.294 621.25C340.888 621.617 339.72 621.551 339.036 622.048C338.351 622.545 338.19 623.713 337.911 623.901C337.528 624.158 331.499 624.345 329.089 625.858C327.973 626.559 326.365 631.454 321.958 632.932C318.671 634.035 313.92 630.687 312.268 636.31C311.588 638.62 313.131 640.935 310.856 643.101L300.212 644.191L299.323 642.434C296.533 643.99 294.218 645.11 291.041 644.186L289.502 648.55L275.397 649.5L274.416 653.767C273.043 653.327 271.065 653.318 269.857 652.821C269.103 652.512 269.16 651.383 269.042 651.33C266.13 649.966 265.533 657.498 262.343 654.774C262.19 656.321 258.964 658.645 258.014 657.925C257.796 657.76 258.014 656.544 257.308 656.443C253.228 655.846 255.621 655.567 253.686 654.656C252.143 653.933 242.044 656.007 241.42 656.548C241.228 656.714 240.548 660.379 238.914 660.706C238.674 660.754 234.307 660.776 234.067 660.728C233.553 660.632 232.506 657.982 230.257 657.551C228.3 657.176 223.767 658.034 221.801 657.869C219.936 657.712 218.188 654.778 215.952 657.651C215.224 658.584 215.459 660.558 214.618 660.802C212.473 661.417 209.645 659.76 207.692 659.817C205.739 659.874 204.645 661.399 202.544 661.665C200.247 661.953 196.294 660.667 195.583 660.854C195.265 660.937 193.12 664.18 190.309 664.267L188.57 662.489C186.212 669.215 177.529 662.014 174.561 666.874C174.051 667.711 175.166 667.523 173.353 670.13C168.362 677.313 167.647 678.438 164.348 686.232C163.546 688.128 161.223 689.335 161.087 691.741L161.144 692.94C163.358 693.341 164.919 694.042 165.608 696.322L167.185 695.612C167.743 699.818 166.78 702.982 172.377 702.655L172.42 704.796L174.164 704.334L173.292 706.94C176.186 708.74 178.614 706.936 180.65 706.923C181.221 706.923 181.077 708.496 182.202 708.976C183.444 709.508 184.878 709.246 186.138 709.852C186.508 710.031 186.321 711.194 186.412 711.26C188.439 712.672 188.273 706.456 190.422 711.33C194.367 710.484 194.524 712.057 197.287 713.718C202.814 706.339 204.562 715.266 208.115 716.006C210.73 716.551 214.383 713.932 215.158 719.158C217.107 716.708 220.812 718.648 221.675 715.671L223.139 718.112L224.722 717.397L225.175 720.043C230.092 717.772 236.429 720.073 240.858 716.547L243.369 719.075L248.713 714.786L249.998 714.808C250.408 718.086 254.811 717.903 257.269 718.966L267.037 713.396L270.454 716.394C276.112 712.676 274.713 715.466 277.659 716.39C283.648 718.264 283.243 710.671 284.581 710.375C287.977 709.582 294.694 713.212 295.801 709.512C297.719 711.918 307.975 709.503 308.847 707.777C309.409 706.666 308.882 705.192 309.854 704.246C312.033 702.128 315.232 703.824 317.377 703.462C317.765 703.396 322.272 698.362 322.394 697.355L327.049 699.081C328.182 697.495 332.402 697.682 336.041 696.775C336.717 696.61 337.929 697.403 338.024 697.333C338.251 697.163 338.661 693.546 340.2 692.077C341.738 690.608 344.837 690.573 346.393 688.672L348.085 690.381C349.632 689.161 349.179 687.099 350.216 685.534C350.36 685.316 353.729 682.008 353.969 681.908C356.013 681.066 358.794 682.173 361.004 681.507C362.774 680.97 363.179 678.495 364.748 677.414C366.832 675.975 373.557 673.164 375.327 670.993C376.164 669.964 375.815 667.149 376.622 666.185C377.851 664.716 383.326 665.322 386.032 662.066C387.989 659.712 387.436 657.075 388.569 655.24C389.31 654.042 394.057 650.803 395.221 649.487C396.385 648.17 396.459 646.379 397.291 645.433C398.852 643.659 401.519 644.304 402.914 643.376C403.359 643.079 403.834 640.346 405.503 639.296C406.715 638.533 408.262 638.681 409.313 637.836C411.187 636.323 411.514 632.104 412.081 631.502C413.715 629.763 417.503 629.58 419.586 627.636C421.509 625.845 421.766 622.628 423.239 621.473C425.201 619.925 430.789 618.517 432.929 619.917C434.132 620.706 435.169 635.451 430.571 635.604L431.347 638.071C425.937 637.592 425.806 643.336 423.74 647.442C423.235 648.445 422.088 648.358 421.775 649.208C421.461 650.058 421.988 651.527 421.74 652.024C421.701 652.102 420.728 651.37 420.031 651.745C416.182 653.798 414.805 658.884 410.895 660.807C409.16 661.661 406.985 660.92 405.194 660.746L404.771 666.878L403.79 667.576C402.36 665.841 398.333 669.171 397.714 670.331C396.842 671.956 398.241 673.116 398.211 674.175C398.202 674.432 395.613 675.278 396.428 677.257C392.148 676.367 388.744 678.072 386.019 681.201C382.946 684.736 386.73 685.534 385.958 686.842C385.849 687.025 383.251 687.722 382.951 689.505L380.418 687.822L369.438 692.133C371.117 695.969 369.382 694.16 368.113 695.568C364.295 699.814 366.405 696.614 362.286 698.406C360.215 699.308 358.184 702.298 356.894 702.734C354.579 703.514 352.321 702.577 352.117 702.695C351.912 702.812 349.863 706.613 349.771 706.936C349.431 708.135 350.377 709.451 350.281 709.542C349.458 710.34 344.428 709.795 344.118 710.004C343.525 710.41 343.669 711.975 342.749 712.153C341.978 712.302 338.059 711.09 337.188 711.717C337.044 714.917 336.181 714.895 334.163 717.323L328.113 714.825L322.45 720.513C321.077 720.779 315.075 720.056 314.674 720.221C314.448 720.313 313.872 722.562 311.048 723.155C309.418 723.499 305.551 723.303 304.505 721.782L303.241 723.874C306.789 727.047 302.6 725.012 303.176 728.708C301.912 727.849 297.492 728.8 297.239 728.643C296.795 728.372 296.616 725.823 294.755 725.365C294.262 725.243 285.213 726.115 284.625 726.289C282.393 726.951 277.136 733.333 273.096 730.635C271.919 734.488 270.097 733.725 267.011 735.7L266.579 733.089C263.118 734.126 261.41 733.206 259.165 730.482C258.258 733.908 256.816 731.354 254.88 731.332C254.588 731.332 253.403 733.912 250.334 734.762C245.692 736.048 242.619 733.311 239.293 733.956C238.753 734.061 238.064 736.75 235.723 736.619C232.023 731.419 227.603 733.389 222.59 735.774C222.35 733.442 216.784 734.157 215.097 733.507C214.37 733.228 213.698 731.868 212.962 731.35C210.756 736.598 206.096 730.334 203.459 730.46C200.138 730.622 197.497 737.221 192.004 737.4L190.309 734.85C187.136 735.281 186.491 739.897 185.536 740.586C184.76 741.144 181.168 739.439 178.797 741.214C176.823 742.687 176.932 747.25 175.476 748.776C174.648 749.643 172.974 749.739 172.002 750.533C166.292 755.166 169.988 759.311 168.009 764.694C167.765 765.357 166.401 765.361 166.423 765.732C166.58 768.216 170.507 777.222 172.416 778.878C174.574 780.752 177.786 780.652 179.412 783.28L182.032 782.295L186.451 789.731C190.082 788.402 193.7 791.484 196.943 791.937C199.802 792.338 202.038 789.805 204.824 790.206C206.602 790.464 208.254 792.399 209.492 792.364C211.135 792.316 211.493 789.949 214.278 792.002L216.457 789.771L218.157 792.329C221.971 788.799 223.384 791.51 225.175 791.501C226.256 791.497 227.067 790.132 227.816 790.093C228.379 790.063 229.046 791.357 230.018 791.131C231.53 790.777 236.582 787.138 238.26 787.151C239.454 787.16 240.4 788.72 241.778 788.873C242.994 789.008 244.371 788.058 245.875 788.223C247.54 788.411 251.223 789.884 252.13 789.784C252.945 789.692 252.762 787.678 254.013 787.317C254.841 787.077 264.592 785.39 265.154 785.495C266.008 785.656 266.749 787.343 268.092 787.818C268.855 788.084 277.716 789.919 278.226 789.823C279.098 789.662 278.937 787.696 280.166 787.321C280.384 787.256 284.542 787.133 284.734 787.256C285.165 787.539 285.126 789.295 286.307 789.666C286.778 789.814 293.172 789.897 291.921 788.071L293.168 788.01C293.726 789.744 298.669 793.227 300.007 793.105C301.345 792.983 302.282 791.375 303.241 791.052C303.525 790.956 308.594 790.084 308.89 790.058C309.766 789.993 310.751 791.305 311.484 791.27C312.613 791.213 314.692 787.426 315.838 787.386C316.348 787.369 317.028 788.755 318.061 788.511C319.225 788.236 321.666 785.717 323.545 786.301C324.028 786.454 325.096 789.409 328.479 788.001C327.302 783.442 328.862 781.768 333.374 781.088C337.218 780.508 339.629 778.869 342.933 778.433C345.931 778.041 348.83 779.458 351.999 778.66C355.168 777.862 360.455 772.649 361.174 772.597C361.558 772.566 362.225 773.534 362.905 773.599C363.768 773.682 364.735 773.076 365.363 773.185C365.951 773.29 366.566 775.975 368.933 775.84C370.062 774.733 372.381 772.375 373.527 771.607C376.861 769.376 376.683 768.739 377.829 767.881C378.187 767.61 385.47 764.141 385.91 764.062C387.418 763.805 390.121 765.078 391.15 764.363L392.998 756.618L396.476 757.494C396.097 752.42 398.202 755.964 400.399 756.705C405.215 758.322 403.803 754.682 405.137 753.549C406.196 752.647 416.252 754.512 415.707 749.221L413.994 748.406L414.792 744.4C417.708 745.694 419.421 742.861 422.42 742.399L428.749 730.465L431.351 731.833C436.568 725.884 438.735 718.482 445.927 714.551L447.923 705.175C452.975 707.311 451.183 704.543 452.718 700.829C454.086 697.525 457.377 694.657 454.017 691.24C456.758 692.146 456.758 689.304 458.022 688.829C458.733 688.563 459.997 689.453 461.326 688.568C462.268 687.94 462.364 686.48 463.432 686.018C465.873 684.963 473.422 685.525 474.756 687.923C474.913 688.206 475.475 693.676 475.418 694.335C475.253 696.143 473.069 697.573 472.245 699.513C471.587 701.06 472.132 703.697 471.212 704.926C470.406 706.007 465.358 710.009 463.942 711.155C463.044 711.883 461.078 712.092 460.485 713.021C459.77 714.15 461.44 716.748 461.043 718.53C460.956 718.918 455.926 723.146 454.806 723.159C453.568 724.968 455.468 726.816 455.42 728.294C455.324 731.502 447.426 735.97 444.427 734.828C443.303 736.99 446.206 736.349 446.21 737.055C446.214 738.45 444.58 740.355 445.944 742.525L441.102 744.574L438.308 751.4L433.099 750.934C430.762 755.009 429.124 757.794 425.676 761.05C425.018 761.674 423.797 761.037 423.649 761.181C423.034 761.761 423.021 763.644 421.204 765.226C420.314 766.002 415.093 768.617 414.186 768.665C413.04 768.722 412.503 767.31 411.305 767.532C408.249 768.099 408.267 772.81 406.296 774.14C405.098 774.951 398.856 775.966 397.357 774.929C397.5 780.752 394.602 778.708 390.984 780.342C390.099 780.743 384.668 783.529 384.38 783.768C384.237 783.886 385.322 786.266 383.714 787.225L374.682 788.894L375.554 791.497L369.395 790.154L367.29 792.377C364.068 788.977 361.161 791.989 357.957 793.362C356.401 794.029 356.51 794.125 354.204 794.901C353.084 795.28 352.26 796.392 351.476 796.658C350.308 797.05 348.813 791.946 346.655 797.433C342.218 796.453 337.929 799.831 335.348 801.866C335.139 802.032 331.922 800.663 330.091 800.707C328.261 800.75 318.798 802.616 318.876 804.569L316.71 802.886L314.435 806.26C311.645 804.935 306.733 804.529 303.838 805.467C302.731 805.824 302.779 807.738 301.498 808.461C300.216 809.185 296.202 807.058 294.912 809.812C292.065 801.631 289.886 807.99 287.606 808.57C284.973 809.241 282.175 808.457 279.673 809.821L278.784 804.586L276.618 807.184C275.816 805.114 273.322 806.495 272.878 806.19C272.433 805.885 272.377 804.508 271.832 804.124C269.474 802.472 264.862 806.718 262.652 806.857C261 806.962 257.718 803.845 255.687 807.201C255.473 803.911 246.211 805.549 245.169 807.153L245.661 809.817C242.427 808.54 235.532 805.074 234.32 809.808H233.474C233.064 806.251 228.749 806.726 226.509 808.936L226.47 807.236L225.188 807.197C223.767 811.059 218.985 808.54 216.039 810.697L214.718 807.219C211.99 811.521 208.516 810.244 204.292 811.586L202.509 808.078C200.657 812.654 195.16 809.372 192.288 809.987C190.862 810.292 188.574 812.75 187.354 813.853C186.495 814.629 186.604 816.032 186.12 816.525C184.616 818.064 178.95 817.667 181.164 822.021L178.632 822.074L178.531 825.517C175.118 823.843 172.861 826.624 169.766 827.797C171.723 835.468 164.531 839.108 166.763 846.47L175.929 848.183C174.194 851.814 176.339 850.144 177.067 851.862C177.795 853.579 177.982 855.946 178.553 857.777C181.269 857.031 187.402 856.473 188.526 859.494C189.067 860.95 186.355 862.894 192.222 862.707C195.422 862.606 197.845 862.214 201.616 862.179C207.448 862.127 213.197 861.211 219.055 862.179L219.517 859.507C224.578 859.163 223.549 861.163 224.765 862.127C225.118 862.406 226.844 860.64 227.93 860.549C229.477 860.422 230.859 862.336 232.969 862.135C233.282 862.105 238.77 860.518 239.032 860.34C240.718 859.198 240.161 856.944 243.948 858.143L244.829 861.233C247.697 861.377 250.282 858.631 251.415 862.179C254.074 862.584 256.258 859.111 258.28 859.002C260.303 858.893 262.961 861.207 265.324 859.647L266.17 861.299C268.889 861.438 276.722 856.609 278.488 856.282C280.889 855.837 289.149 856.84 291.429 856.513C293.05 856.282 296.808 855.044 298.229 854.259C303.551 851.321 309.387 854.098 314.74 853.239C320.127 852.376 325.515 848.527 330.026 846.5C331.665 845.764 335.518 847.137 335.509 843.85L341.96 847.281C343.538 846.191 346.725 842.695 348.285 842.259C352.173 841.174 359.169 842.704 361.867 841.924C363.532 841.444 368.323 835.621 371.173 834.745C373.549 834.017 376.238 836.637 376.901 836.615C377.371 836.602 379.411 834.065 381.617 833.72C383.591 833.411 385.03 834.435 387.772 833.829C391.546 832.997 394.706 829.104 395.827 828.73C396.219 828.599 403.21 827.683 403.882 827.644C405.351 827.561 408.118 831.166 409.178 825.452C415.297 827.086 415.14 823.852 418.898 822.2C422.428 820.648 429.106 820.971 429.673 820.714C430.636 820.278 431.177 818.142 432.297 817.292C432.68 817.004 439.973 812.977 440.43 812.768C441.476 812.288 445.456 812.55 447.038 811.547L445.308 808.958L450.464 806.243L449.658 803.714C452.199 802.59 456.44 803.928 458.393 803.374C461.331 802.542 463.776 800.341 466.295 798.981C468.379 797.856 471.033 796.984 473.178 795.777L472.319 793.253C474.786 793.846 474.913 791.95 476.499 790.9C477.598 790.167 480.008 789.814 480.143 789.675C480.475 789.33 479.176 782.618 485.413 783.651L484.533 781.92L488.896 781.907C485.64 773.656 499.619 776.69 494.994 767.972L504.583 767.092L502.848 761.002L507.212 760.113L506.309 757.127C509.753 756.417 508.75 751.688 509.02 751.483C509.914 750.807 517.555 748.637 518.344 747.712C519.198 746.71 518.889 743.162 520.24 741.331C521.853 739.139 529.729 734.017 532.419 732.13C529.049 726.537 534.424 724.358 539.462 723.495C537.658 718.186 539.951 720.958 542.47 718.229C543.882 716.7 543.952 714.18 544.898 712.781C545.896 711.303 552.761 702.098 553.341 701.487C554.823 699.94 557.142 700.123 558.537 697.682C560.35 694.513 558.493 692.761 559.025 690.826C559.256 689.984 562.943 682.945 563.436 682.54C566.112 680.343 569.172 682.047 571.09 681.642C571.452 681.563 574.394 678.264 577.38 678.229C579.193 678.211 581.259 680.373 583.582 680.739C586.058 681.136 589.262 679.327 589.567 679.366C591.167 679.576 597.679 682.744 600.878 682.98C603.014 683.137 607.185 681.563 608.663 681.86C609.604 682.047 614.73 684.841 617.917 685.608C622.136 686.628 619.534 686.362 621.996 687.57C625.113 689.1 630.03 686.467 629.249 692.983C631.333 694.051 634.136 691.571 634.916 691.558C636.428 691.541 638.804 695.398 641.437 692.112C642.831 694.13 645.979 699.439 648.119 699.683C649.592 699.853 651.009 698.532 652.791 699.456C654.321 700.249 654.304 702.76 655.411 703.859C656.431 704.874 658.776 705.048 658.881 705.201C659.064 705.471 657.372 709.22 659.879 711.186L663.235 710.41V717.38C667.359 716.281 668.121 720.753 670.248 723.691C670.88 724.563 674.577 728.913 674.607 729.283C674.768 731.315 673.029 732.492 675.475 735.251L673.714 735.708C676.603 738.467 674.367 739.104 674.128 741.375C673.517 747.224 675.645 747.416 679.799 750.951L678.029 752.69C680.535 755.72 679.079 756.53 679.066 758.823C679.066 759.106 682.004 761.116 682.222 763.326C682.383 764.969 678.02 770.208 678.038 772.64L682.396 777.976L679.886 779.41L680.313 782.818C673.988 784.104 675.235 791.649 677.227 796.265L675.531 797.089C678.26 801.43 670.876 805.719 675.427 809.359L672.829 810.68L674.167 814.149L667.681 818.203C669.364 821.69 667.171 822.819 666.766 825.094C666.016 829.344 666.121 834.849 665.55 838.833C665.349 840.228 663.191 841.544 664.861 844.155L661.483 845.537L663.239 849.434C658.567 851.4 661.583 852.825 661.417 855.606C661.339 856.901 659.761 857.742 659.901 858.862C659.957 859.307 662.538 866.952 662.804 867.309C663.81 868.648 668.631 868.953 668.474 872.553L671.944 870.818L671.212 872.409C674.433 872.645 673.239 876.18 673.796 876.803C675.222 878.385 682.754 876.681 685.029 876.506V872.557C688.294 872.13 693.254 874.767 695.721 873.285C700.551 870.382 697.892 864.393 698.21 863.992C698.446 863.692 699.653 863.665 700.22 862.911C700.821 862.109 700.559 860.671 700.782 860.392C700.865 860.287 701.841 861.129 702.225 860.928C702.381 860.845 705.005 859.063 705.114 858.923C707.054 856.456 703.868 854.582 704.203 854.259L707.346 853.414C706.827 850.253 707.019 851.273 709.295 849.386L708.549 847.276L712.882 845.864L712.132 843L717.28 841.161C717.38 838.707 715.706 837.417 713.793 836.379C716.613 833.672 718.352 832.387 722.55 832.892L726.83 825.857C723.788 825.195 726.05 824 725.74 822.562C725.47 821.315 724.537 820.413 724.407 818.953C724.062 815.143 726.769 812.227 725.113 808.923L727.745 808.91C725.291 805.672 731.747 804.508 729.471 801.073L732.126 800.511L733.037 795.341C728.835 790.9 733.407 785.094 733.87 779.75C734.122 776.816 734.14 773.242 732.963 770.566L735.369 770.422L736.01 768.844C733.896 764.934 736.677 761.966 736.459 757.986C736.284 754.809 734.401 750.921 734.118 748.244C733.73 744.574 734.379 737.879 731.965 734.078C731.616 733.529 729.624 733.712 728.835 732.845C727.68 731.572 727.545 727.379 724.25 726.533L726.808 724.82C724.751 723.159 726.15 719.354 725.588 718.264C724.943 717.013 722.903 716.761 722.118 715.588C720.667 713.413 719.459 709.547 717.297 706.709C713.828 702.154 715.924 704.796 714.237 700.886C711.849 695.359 703.99 688.686 701.239 684.196C700.058 682.274 700.228 679.841 698.602 678.081C696.894 676.232 689.75 674.62 687.867 671.011C687.64 670.575 688.608 667.484 686.293 665.056C686.058 664.808 680.33 662.903 679.838 662.825C676.882 662.345 674.716 665.1 672.593 660.436C671.774 658.64 672.615 657.481 672.454 655.92C672.341 654.835 671.063 653.68 671.116 652.438C671.26 649.007 675.479 645.302 676.9 642.321C684.789 640.412 683.469 643.184 686.755 647.246C687.357 647.987 689.253 650.293 689.702 650.773C694.261 655.672 694.488 653.131 699.287 653.802C699.505 653.832 701.388 656.535 702.913 656.334C704.609 659.059 700.83 656.997 701.584 659.839C704.735 659.098 705.738 661.534 708.148 663.322C709.011 663.962 710.742 664.063 710.99 664.385C711.465 665.008 710.973 666.612 711.64 667.672C712.045 668.312 713.335 668.36 713.636 668.761C714.216 669.537 711.548 673.308 716.818 673.639C717.69 673.696 718.662 672.933 719.376 672.933C719.564 672.933 721.974 675.391 722.062 675.557C723.016 677.379 721.883 678.56 722.096 680.025C722.532 683.032 725.3 684 726.115 686.794L729.476 685.987L730.443 695.481C734.305 695.969 736.14 697.647 736.48 701.683L738.185 700.807C739.449 704.578 739.505 707.315 739.078 711.277C739.51 709.956 743.524 712.65 743.834 713.021C745.351 714.834 744.562 719.167 748.655 720.435L746.881 722.174L748.502 724.785L745.172 727.392C747.678 728.551 745.778 731.031 746.466 732.182C747.037 733.137 751.584 738.393 751.985 739.37C752.316 740.18 751.218 741.03 751.483 741.636C751.558 741.806 752.778 741.702 752.965 742.334C753.035 742.573 752.996 747.076 752.918 747.311C752.512 748.545 749.561 748.58 749.949 751.81C750.246 754.286 753.741 755.593 753.872 756.216C754.038 757.014 752.726 757.943 752.625 758.806C752.224 762.258 752.909 766.364 750.424 769.245L753.881 770.592C752.316 772.701 754.264 772.069 754.731 772.919C756.788 776.668 754.356 775.365 754.064 776.197C753.737 777.134 754.979 784.261 753.876 786.227L752.111 785.774L751.274 788.864L748.676 787.983C747.8 792.748 752.142 795.516 750.346 799.661L752.15 801.487C744.989 804.381 752.36 808.827 749.339 813.068C748.912 813.666 746.619 813.91 745.551 814.956C745.237 815.265 740.726 821.568 740.477 821.973C739.771 823.133 739.841 831.123 736.463 832.888C739.026 833.764 738.852 836.532 739.109 838.968L736.629 839.531L735.565 847.246L733.124 847.411L732.963 849.883L729.925 849.826L727.671 857.158C732.815 858.404 737.143 870.121 740.508 870.544C741.624 870.683 742.731 869.829 743.716 869.912C744.095 869.942 748.336 874.523 748.628 874.702C748.899 874.872 752.556 874.597 754.822 875.574C756.766 876.406 757.028 878.542 759.486 878.716C760.563 875.657 762.825 876.297 764.721 875.055C765.711 874.406 765.894 873.059 766.713 872.496C767.668 871.838 769.564 872.074 770.261 871.485C771.172 870.718 770.793 868.334 771.56 867.536C773.465 865.557 780.653 864.141 783.49 864.651C783.216 861.32 785.055 859.647 786.698 857.363C787.949 855.628 785.835 855.131 790.508 855.109C788.991 851.504 791.462 849.822 791.846 847.329C792.151 845.35 787.762 841.292 793.934 841.1C792.801 836.872 795.451 834.104 795.834 829.915C800.511 830.517 798.611 828.538 799.496 827.54C800.476 826.437 802.608 825.561 803.07 823.765C803.467 822.204 802.054 819.702 803.501 817.719C798.833 816.32 802.155 815.305 802.481 813.57C802.66 812.624 801.553 810.928 801.841 810.658C802.011 810.497 805.066 811.242 805.336 808.461C805.363 808.187 801.828 806.814 802.015 804.268C802.037 803.972 803.584 798.854 803.776 798.632C804.138 798.218 807.551 798.113 807.956 795.38C808.013 795.01 805.746 795.624 806.134 791.898C806.295 790.346 809.307 789.67 808.784 787.613C808.357 785.935 804.495 787.861 807.145 779.941C807.359 779.305 808.688 779.575 808.885 778.011C809.403 773.83 808.81 767.963 808.828 763.583L811.439 763.574C812.633 762.437 807.211 759.154 807.215 758.827L807.952 753.994L811.434 753.985C811.644 749.922 809.207 751.104 808.013 750.437C807.852 750.35 807.904 746.963 807.943 746.784C808.427 744.561 812.947 743.75 813.182 743.524C813.374 743.341 812.389 741.004 812.511 739.832C812.951 735.564 816.194 726.89 814.852 722.301C814.725 721.873 811.618 720.208 811.779 717.829C811.822 717.166 813.017 716.251 813.126 715.174C813.936 707.132 811.709 710.017 810.205 705.977C809.752 704.765 810.349 703.183 809.782 702.302C809.255 701.483 807.451 701.3 807.328 700.454C807.198 699.53 808.383 697.704 808.008 696.183C807.93 695.864 805.071 692.77 804.696 691.658C804.133 689.984 802.351 685.73 802.216 685.22C801.117 681.106 801.082 677.183 799.134 673.011C794.413 674.036 794.422 668.016 791.676 666.098C789.488 664.573 784.99 664.708 783.743 663.993C782.823 663.465 780.195 657.834 779.245 656.919C778.216 655.929 776.743 656.509 776.555 656.347C776.381 656.199 778.464 654.329 775.64 652.486C772.632 650.524 765.815 651.222 765.379 650.934C764.813 650.559 763.23 646.667 762.376 646.135C759.987 644.657 753.593 645.59 752.421 643.084C751.056 640.168 754.87 641.166 753.903 638.054C745.494 637.474 738.307 630.818 743.014 622.305C746.379 621.372 752.639 620.152 755.433 622.567C756.2 623.229 755.951 624.964 756.718 625.631C758.083 626.817 763.444 626.943 764.372 627.963C765.602 629.314 764.939 631.433 765.331 631.842C765.584 632.104 770.623 632.98 772.345 633.795C773.051 634.131 776.076 637.082 776.329 637.143C778.783 637.727 781.11 636.497 782.592 639.618C783.207 640.917 783.072 643.053 783.765 643.934C784.283 644.596 789.579 646.762 790.996 647.63C791.798 648.122 791.855 649.692 792.953 650.271C794.875 651.287 799.574 651.025 802.277 653.763C803.785 655.288 802.991 658.087 806.975 658.196L806.213 663.317C816.242 661.944 811.086 671.25 813.352 677.571C813.827 678.887 817.62 679.924 816.691 683.385C822.183 681.45 822.153 686.89 823.713 690.739L821.909 692.077C826.18 692.478 823.687 695.398 824.097 697.434C824.99 701.867 829.528 706.365 829.358 713.461C829.284 716.521 825.588 718.373 828.913 722.161L827.139 723.029C830.975 726.014 828.948 728.216 828.791 731.768C828.721 733.307 829.58 734.405 829.654 735.303C829.694 735.752 828.133 735.63 827.719 736.72C827.44 737.452 825.304 745.232 825.304 745.694C825.295 748.083 828.429 751.308 828.63 753.667C828.926 757.167 825.513 762.384 825.548 762.964C825.657 764.96 827.34 771.267 828.87 772.732C824.376 774.606 827.139 776.716 828.015 780.129C822.318 780.142 825.125 783.786 825.313 786.741C825.343 787.208 823.957 787.025 823.844 787.517C822.841 791.963 824.929 794.888 824.546 796.98C824.437 797.573 823.094 797.595 822.837 798.227C822.27 799.617 822.419 801.243 821.638 802.555C821.316 803.091 819.664 803.222 819.511 804.05C818.984 806.918 822.689 807.738 823.234 808.875C824.201 810.898 823.059 813.857 825.396 815.871L819.376 819.009C818.435 822.1 820.021 821.241 821.033 822.845L818.382 823.307C817.877 826.001 820.061 829.471 819.834 831.162C819.677 832.326 815.519 835.887 815.07 838.319C814.834 839.6 814.329 845.132 814.198 846.81C814.128 847.682 815.248 849.582 814.939 849.874C814.769 850.035 812.084 849.094 811.439 852.075L813.113 852.546L813.191 854.22L807.097 858.147C809.8 860.148 809.512 863.722 810.306 865.566C810.855 866.843 813.841 873.843 814.194 874.148C814.956 874.807 818.125 873.926 819.564 874.266C820.871 874.571 820.409 879.074 825.566 876.816C826.333 876.48 826.394 875.469 826.956 875.234C833.133 872.64 841.632 871.228 840.216 862.092L847.948 861.089C848.484 858.147 848.319 855.658 846.322 853.383C853.305 852.629 849.182 847.499 850.006 845.664C850.585 844.369 852.948 843.34 853.231 838.899C853.305 837.744 852.163 835.32 852.416 835.076C852.573 834.923 854.482 835.342 855.463 834.204C856.13 833.433 856.731 830.538 857.381 829.165C857.912 828.045 859.207 828.071 859.242 827.967C859.412 827.466 858.396 826.184 858.518 825.077C858.645 823.896 859.935 823.006 859.961 822.409C860.026 820.783 856.775 819.493 856.683 818.077C856.539 815.832 857.96 813.635 856.766 811.525L859.394 811.517L857.76 802.904L859.861 801.984L859.394 799.377L862.759 798.327C863.64 795.986 861.892 793.401 862.215 791.266C862.611 788.637 865.758 786.95 866.142 783.851C866.495 781.014 865.553 778.913 865.736 777.191C865.859 776.058 867.184 774.977 867.192 773.591C867.201 771.956 865.24 770.444 865.453 768.391C865.623 766.774 867.179 766.237 867.598 765.231C870.684 757.812 874.075 745.585 870.714 738.293L873.334 738.276L872.423 733.546L874.254 732.574L873.33 729.575L876.821 728.246C871.577 722.684 876.69 716.233 875.09 709.516L877.693 710.384C875.709 706.5 880.299 700.446 880.352 698.637C880.36 698.388 878.133 698.266 878.085 694.653C878.054 692.138 879.999 691.257 880.016 689.906C880.038 688.11 875.147 669.241 874.201 667.462C873.683 666.49 872.065 666.451 871.695 665.37C870.971 663.269 872.484 661.704 872.484 660.327C872.484 659.804 870.592 659.839 870.182 658.139C869.773 656.439 870.897 654.037 870.71 653.771C870.505 653.488 865.479 652.102 864.564 650.507C863.701 649.003 863.98 646.823 863.261 645.058C862.82 643.973 861.012 643.088 860.698 641.637C860.401 640.272 861.6 638.476 861.042 636.837C860.672 635.743 859.046 635.726 858.719 635.194C858.209 634.357 858.793 632.984 858.322 632.147C857.163 630.09 849.496 630.221 852.338 624.188L844.487 621.769L842.587 612.916C840.037 611.957 837.5 610.545 834.937 609.665C833.385 609.129 832.06 610.044 830.395 609.285C829.807 609.02 823.517 601.435 821.852 600.162C820.802 599.36 817.79 597.347 816.682 596.758C814.52 595.603 810.698 597.129 810.563 591.82L808.096 592.626C807.363 590.381 804.931 588.895 802.93 587.709C797.896 584.715 793.415 585.635 788.573 583.926C787.771 583.643 786.554 580.91 784.685 580.666C783.73 580.539 783.08 581.681 782.23 581.816C781.446 581.938 780.478 581.263 779.772 581.359C779.066 581.454 779.127 583.024 778.748 583.133C776.377 583.821 776.869 581.93 775.91 581.428C774.834 580.862 773.491 581.088 772.449 580.256C771.408 579.423 771.425 577.588 768.927 576.333C765.772 574.746 765.467 577.022 764.12 576.839C761.217 576.446 759.303 572.872 757.634 571.983C753.645 569.856 747.425 569.973 743.729 567.559C741.977 566.713 742.74 569.485 741.201 569.882C740.246 570.13 737.644 569.202 735.652 570.88C734.009 565.257 726.965 566.661 723.077 564.704C720.022 563.165 720.758 560.859 720.244 560.415C716.504 557.158 713.632 558.353 710.254 557.507C707.15 556.727 707.63 554.221 707.311 552.612C706.344 547.761 706.008 547.482 704.225 544.095C701.824 539.536 702.482 534.061 703.057 529.641C703.358 527.322 701.558 523.753 701.763 522.645C701.967 521.538 703.916 520.588 704.596 519.411C706.208 516.63 706.71 509.674 704.217 507.285C708.166 507.751 712.049 504.992 711.81 500.847C711.592 497.125 710.563 494.74 712.276 490.29C712.673 489.257 715.698 485.421 717.297 486.345C715.536 481.642 715.728 481.167 717.886 476.956C720.488 471.874 718.513 474.184 719.228 469.551C720.466 461.566 724.563 458.815 727.135 452.351C728.574 448.733 729.023 444.156 730.226 440.473C730.731 438.93 732.815 439.588 731.232 437.544L733.922 437.065C732.627 433.787 735.203 431.394 735.565 429.214C736.058 426.242 735.539 422.293 736.123 419.141C736.498 417.119 739.689 411.051 739.662 409.194C739.641 407.765 737.479 406.562 737.404 404.871C737.296 402.377 739.784 395.464 739.998 393.446C740.181 391.703 738.272 390.391 738.503 388.154C738.734 385.918 740.56 383.477 740.556 383.037C740.556 382.183 738.045 380.614 738.233 377.885C738.52 373.679 741.619 369.499 740.909 362.956C740.73 361.309 737.574 361.3 738.237 356.074C738.377 354.984 739.588 354.038 739.632 353.389C739.719 352.138 737.069 348.956 736.65 347.064C735.97 343.991 737.705 337.693 735.713 333.338C734.34 330.339 731.843 330.671 731.232 329.694C730.104 327.89 730.927 323.348 730.16 320.549C729.511 318.174 725.509 312.089 725.448 311.588C725.252 309.94 727.898 306.989 727.628 305.59C727.445 304.666 725.801 303.755 725.252 302.722C722.877 298.25 721.456 298.472 719.882 295.909C719.028 294.514 719.193 292.814 718.614 291.886C717.999 290.905 716.596 292.06 715.593 291.502C712.385 289.72 710.044 281.255 709.295 280.78C708.384 280.204 705.79 280.815 703.964 279.786C700.978 278.103 699.858 273.448 698.777 272.119C698.132 271.325 695.573 271.203 694.557 269.782C693.594 268.436 694.117 266.291 693.25 265.694C692.382 265.097 690.024 265.197 688.612 264.408C686.886 263.44 682.109 259.269 680.923 258.951C679.432 258.554 672.471 259.857 672.105 259.609L668.47 253.598L665.441 256.205C662.695 253.664 658.942 254.893 656.714 250.983C655.886 254.749 649.483 250.983 650.172 247.491V247.513ZM903.536 477.998C895.446 474.049 897.547 476.185 890.974 477.497C885.39 478.613 885.077 477.885 879.214 481.171C878.094 481.799 879.406 483.726 874.894 481.943C874.071 481.616 874.214 480.208 873.818 480.282C872.885 480.448 868.108 483.124 866.909 483.883C865.946 484.488 865.593 486.097 865.379 486.21C865.213 486.302 863.374 485.556 862.036 485.848C858.039 486.729 854.652 488.372 850.686 488.995L851.575 491.593C848.314 493.385 842.408 490.639 841.959 495.089L839.802 493.472L836.145 497.744C833.512 498.376 831.873 496.283 831.08 496.288C830.504 496.288 829.532 497.556 828.438 497.665C826.433 497.866 819.742 497.805 818.474 498.633C818.3 498.746 819.856 501.122 816.948 501.915C813.797 502.778 810.933 500.668 806.431 502.682C805.153 503.253 805.223 506.256 801.788 504.269C801.78 501.614 800.673 501.967 798.82 500.324C797.839 500.708 798.946 502.233 797.874 503.048C797.351 503.445 786.066 504.801 784.863 504.757C782.034 504.657 780.522 503.253 777.92 502.926C770.841 502.033 762.982 503.257 755.637 501.741C753.942 501.392 752.203 499.505 750.873 499.478C749.474 499.452 748.236 500.96 747.395 500.908C746.65 500.865 745.778 499.513 744.941 499.278C742.718 498.659 738.956 498.084 737.112 496.863C734.998 495.464 735.325 490.203 731.825 490.892C726.852 491.872 731.237 499.208 735.613 497.709L733.974 498.646L734.741 503.807L732.074 503.297C731.973 505.79 729.768 506.396 729.149 507.355C728.53 508.314 728.839 509.743 728.329 510.502C727.667 511.478 725.008 512.79 724.572 513.801C724.389 514.229 724.93 519.464 724.219 521.442C723.635 523.064 718.954 524.114 722.545 527.336L719.878 527.902C719.115 531.542 720.588 534.658 723.099 536.995L726.019 536.062L726.887 541.685C726.538 543.332 722.458 541.144 724.463 544.631C724.794 545.207 735.007 550.76 736.441 549.156L738.35 554.299C743.036 551.662 745.869 556.261 749.348 556.832C751.941 557.254 753.929 555.611 756.113 555.646C757.054 555.659 771.782 559.094 772.497 559.547C773.356 560.088 773.565 561.53 774.372 562.21C778.194 565.436 779.702 562.925 782.958 563.274C785.112 563.505 791.685 566.565 792.696 566.608C792.975 566.621 793.616 563.888 797.194 563.976C800.202 564.05 805.96 566.504 810.188 566.146C811.857 566.007 813.714 564.211 815.41 564.289C818.125 564.412 817.763 566.927 821.477 562.407C825.91 565.231 823.783 562.991 825.108 562.18C825.474 561.958 832.252 559.238 833.076 558.985C836.942 557.786 839.989 558.549 843.72 557.838L842.84 556.112C845.712 554.016 852.381 557.359 853.584 556.945C855.14 556.409 857.259 550.45 862.023 553.48L861.147 550.877L869.751 549.866C869.354 546.998 872.327 546.645 872.933 545.669C873.417 544.884 872.375 545.224 874.602 542.177C875.003 541.628 874.162 540.473 874.236 540.425C874.646 540.177 877.004 540.673 878.582 539.963C881.629 538.594 881.502 534.41 887.23 537.74C889.091 532.209 895.08 531.659 899.081 528.168C904.887 523.103 909.351 512.803 911.473 505.733C912.511 502.281 910.772 498.166 915.205 496.379L912.594 492.888L914.355 491.162L911.718 487.666C915.488 486.616 912.228 485.578 911.944 484.066C911.696 482.745 913.317 480.871 912.188 479.358C910.658 477.065 908.135 480.657 905.498 479.777C903.85 479.227 903.846 478.125 903.545 477.981L903.536 477.998Z" fill="black"/>
<path d="M410.32 231.904C410.307 236.189 420.554 238.434 421.404 239.611C422.254 240.787 421.631 243.403 421.788 244.893L425.257 243.154C429.067 248.864 424.948 253.04 423.98 258.863C423.052 260.311 419.482 260.053 418.013 260.777C416.762 261.396 416.749 263.004 415.938 263.218C412.848 264.037 409.339 262.189 407.452 262.307C406.902 262.342 407.099 263.745 406.536 263.889C405.874 264.059 403.01 263.405 401.75 264.05L401.572 261.618L399.253 261.374C399.658 253.581 392.117 255.28 392.122 247.034C392.122 244.501 394 238.447 395.277 236.263C397.771 232.004 405.913 233.652 410.32 231.904Z" fill="black"/>
<path d="M484.934 185.221C488.159 188.142 493.926 195.791 494.166 200.102C494.253 201.624 492.745 201.257 492.679 201.493C492.509 202.112 493.141 202.936 492.788 203.833C491.616 206.815 489.471 209.666 488.347 212.712C486.015 211.719 481.991 212.634 480.187 212.307C477.933 211.902 469.987 207.883 468.78 206.174C467.573 204.465 468.466 201.41 466.256 199.998L468.85 198.677L466.256 194.771L468.654 192.169L466.247 188.665C468.505 188.233 467.167 186.812 467.947 186.089C469.939 184.236 479.777 181.76 482.436 182.894C483.979 183.552 484.049 184.415 484.942 185.226L484.934 185.221Z" fill="black"/>
<path d="M674.564 430.614C672.014 435.936 677.362 439.972 677.619 443.725C677.815 446.589 674.045 452.015 672.798 455.376C672.083 457.311 672.001 461.147 671.181 462.32C670.628 463.113 669.255 462.616 668.732 463.021C667.777 463.754 668.47 465.824 666.508 466.635C665.754 466.944 657.843 467.18 657.394 466.979C657.011 466.805 652.281 461.069 652.116 460.467C651.209 457.255 653.567 452.948 650.176 451.959C651.27 449.2 654.539 444.584 654.975 441.942C655.176 440.743 653.123 437.806 654.23 435.182L659.325 430.034C661.326 429.232 665.519 431.176 666.286 431.124C667.986 431.01 671.007 428.473 674.564 430.614Z" fill="black"/>
<path d="M628.748 440.739C628.853 440.97 629.908 440.905 630.095 441.624C630.967 444.976 627.349 446.558 626.9 447.399C626.033 449.03 624.407 455.829 624.128 456.213C623.504 457.067 621.988 456.47 621.595 456.862C620.985 457.481 621.674 461.156 619.66 462.389C619.054 462.76 614.251 463.728 613.784 463.514C613.601 463.431 613.562 462.546 613.222 462.359C609.356 460.179 610.964 460.166 609.247 458.244C606.257 454.905 602.879 454.544 604.417 448.402C605.559 443.843 606.802 437.828 608.205 433.53C608.828 431.616 612.76 428.844 610.079 425.361C611.544 424.381 614.456 425.231 615.354 424.856C617.799 423.827 619.006 419.385 624.524 422.689C628.373 424.995 625.741 428.443 626.046 430.914C626.32 433.133 627.802 438.673 628.748 440.739Z" fill="black"/>
</svg>
