<svg width="208" height="180" viewBox="0 0 208 180" fill="none" xmlns="http://www.w3.org/2000/svg">
<path d="M208 13.1199V150.417C208 158.05 201.481 164.1 193.845 163.495L110.03 156.98C100.158 156.235 90.287 158.422 81.673 163.263L52.7567 179.552C50.1957 180.995 47.4018 178.063 49.0316 175.596L63.5129 153.349L76.97 132.685C78.413 130.451 81.207 129.427 83.768 130.218C104.908 137.013 128.749 129.194 141.46 109.74C156.594 86.376 149.982 55.1934 126.653 40.0209C103.325 24.8484 72.1272 31.4572 56.9474 54.7745C44.2821 74.275 46.7965 99.268 61.6038 115.79C63.3732 117.792 63.5594 120.724 62.116 123.004L45.0271 149.254C44.0027 150.79 42.2333 151.674 40.4173 151.534L9.2196 149.114C4.0045 148.742 0 144.413 0 139.201V24.2899C0 19.0772 4.0045 14.7488 9.2196 14.3765L193.891 0.0417367C201.528 -0.563263 208 5.48714 208 13.1199ZM99.181 47.7933C80.136 47.7933 64.7235 63.199 64.7235 82.234C64.7235 91.496 68.4021 99.92 74.3622 106.11C77.994 109.88 82.464 112.812 87.493 114.627C91.172 115.93 95.083 116.675 99.227 116.675C118.272 116.675 133.684 101.269 133.684 82.234C133.638 63.245 118.225 47.7933 99.181 47.7933Z" fill="#82888E"/>
</svg>
